<svg xmlns="http://www.w3.org/2000/svg" viewBox="0 0 1400 850">
  <rect width="1400" height="850" fill="#050505"/>
  <rect x="60" y="60" width="1280" height="730" rx="36" fill="#0b0b0b" stroke="#2a2a2a" stroke-width="2"/>

  <text x="105" y="125" fill="#ff6b5f" font-family="Arial, Helvetica, sans-serif" font-size="22" letter-spacing="8">MAHARAJAS' EXPRESS</text>
  <text x="105" y="182" fill="#ffffff" font-family="Arial, Helvetica, sans-serif" font-size="54" font-weight="300">The Indian Splendour Route</text>
  <text x="105" y="225" fill="#a8a8a8" font-family="Arial, Helvetica, sans-serif" font-size="21">6 Nights / 7 Days • Delhi to Mumbai</text>

  <path d="M760 185 C690 235 660 310 620 375 C575 448 515 505 500 585 C485 665 545 730 640 735 C745 742 870 695 945 610 C1020 525 1035 415 975 325 C925 250 845 205 760 185Z"
        fill="#111111" stroke="#333333" stroke-width="3"/>

  <path d="M705 280 C690 325 660 355 620 410 C665 390 650 375 610 365 C560 355 525 405 505 485 C490 550 545 610 610 635 C665 655 710 670 760 690"
        fill="none" stroke="#ffffff" stroke-width="7" stroke-linecap="round" stroke-linejoin="round"/>

  <path d="M705 280 C690 325 660 355 620 410 C665 390 650 375 610 365 C560 355 525 405 505 485 C490 550 545 610 610 635 C665 655 710 670 760 690"
        fill="none" stroke="#ff6b5f" stroke-width="2" stroke-linecap="round" stroke-linejoin="round"/>

  <g font-family="Arial, Helvetica, sans-serif" font-size="23" fill="#ffffff">
    <circle cx="705" cy="280" r="13" fill="#ff6b5f"/><text x="730" y="288">Delhi</text>
    <circle cx="680" cy="335" r="13" fill="#ff6b5f"/><text x="705" y="343">Agra</text>
    <circle cx="620" cy="410" r="13" fill="#ff6b5f"/><text x="645" y="418">Ranthambore</text>
    <circle cx="665" cy="390" r="13" fill="#ff6b5f"/><text x="690" y="398">Jaipur</text>
    <circle cx="610" cy="365" r="13" fill="#ff6b5f"/><text x="480" y="373">Bikaner</text>
    <circle cx="505" cy="485" r="13" fill="#ff6b5f"/><text x="370" y="493">Jodhpur</text>
    <circle cx="610" cy="635" r="13" fill="#ff6b5f"/><text x="635" y="643">Udaipur</text>
    <circle cx="760" cy="690" r="13" fill="#ff6b5f"/><text x="785" y="698">Mumbai</text>
  </g>

  <text x="105" y="735" fill="#777777" font-family="Arial, Helvetica, sans-serif" font-size="18">Illustrative route map designed for Outsyda Rail.</text>
</svg>
